<svg xmlns="http://www.w3.org/2000/svg" viewBox="0 0 1012.62 212"><defs><style>.cls-1{fill:#202229;}.cls-2{fill:#2087ea;}</style></defs><title>landscape-flat</title><g id="Layer_2" data-name="Layer 2"><g id="Layer_1-2" data-name="Layer 1"><path class="cls-1" d="M312.86,80.11q10,8.45,10,26v36.72a1.81,1.81,0,0,1-1.81,1.81h-23.9a1.81,1.81,0,0,1-1.81-1.81v-1.75a1.81,1.81,0,0,0-3.16-1.2Q286.41,146,275,146A32.42,32.42,0,0,1,260.51,143a20.77,20.77,0,0,1-12.12-19.33q0-10.61,8.12-16.12t24.64-5.5h9.49a1.82,1.82,0,0,0,1.64-2.59q-2.69-5.79-12.71-5.79a33.86,33.86,0,0,0-9.83,1.51,29.22,29.22,0,0,0-6.85,3,1.8,1.8,0,0,1-2.58-.75l-7.8-16.15a1.82,1.82,0,0,1,.77-2.38,54.12,54.12,0,0,1,13.37-5.08A71.88,71.88,0,0,1,284,71.65Q302.9,71.65,312.86,80.11Zm-23.33,46.32a9.7,9.7,0,0,0,3.56-4.79,1.88,1.88,0,0,0,.11-.65v-2.84a1.81,1.81,0,0,0-1.81-1.81h-5.53q-9,0-9,6a5.22,5.22,0,0,0,1.9,4.13,7.65,7.65,0,0,0,5.18,1.64A9.75,9.75,0,0,0,289.53,126.43Z"/><path class="cls-1" d="M337.47,47.41h26a1.81,1.81,0,0,1,1.81,1.81v93.61a1.81,1.81,0,0,1-1.81,1.81h-26a1.81,1.81,0,0,1-1.81-1.81V49.22A1.81,1.81,0,0,1,337.47,47.41Z"/><path class="cls-1" d="M443.57,76.18a32.62,32.62,0,0,1,12.58,13,40.37,40.37,0,0,1,4.65,19.66,40,40,0,0,1-4.65,19.59,32.72,32.72,0,0,1-12.58,13A34.44,34.44,0,0,1,426.21,146q-9.51,0-15.43-3.91a1.8,1.8,0,0,0-2.78,1.52v24.7a1.81,1.81,0,0,1-1.81,1.81h-26a1.81,1.81,0,0,1-1.81-1.81V74.77A1.81,1.81,0,0,1,380.19,73h24.55a1.81,1.81,0,0,1,1.81,1.81h0a1.8,1.8,0,0,0,2.86,1.47q6.22-4.6,16.8-4.6A34.45,34.45,0,0,1,443.57,76.18Zm-16.05,43q3.27-3.67,3.28-10.35t-3.28-10.42a11.28,11.28,0,0,0-16.77,0q-3.28,3.73-3.28,10.42t3.28,10.35a11.42,11.42,0,0,0,16.77,0Z"/><path class="cls-1" d="M541.2,79.65q8.06,8,8.06,24.11v39.08a1.81,1.81,0,0,1-1.81,1.81h-26a1.81,1.81,0,0,1-1.81-1.81v-34q0-12.32-8.78-12.32A10.26,10.26,0,0,0,502.8,100q-3.08,3.47-3.08,10.94v31.87a1.81,1.81,0,0,1-1.81,1.81h-26a1.81,1.81,0,0,1-1.81-1.81V49.22a1.81,1.81,0,0,1,1.81-1.81h26a1.81,1.81,0,0,1,1.81,1.81V75.1a1.81,1.81,0,0,0,2.82,1.49,30.55,30.55,0,0,1,17.36-4.94Q533.14,71.65,541.2,79.65Z"/><path class="cls-1" d="M623,80.11q10,8.45,10,26v36.72a1.81,1.81,0,0,1-1.81,1.81h-23.9a1.81,1.81,0,0,1-1.81-1.81v-1.75a1.81,1.81,0,0,0-3.16-1.2Q596.59,146,585.16,146A32.42,32.42,0,0,1,570.68,143a20.77,20.77,0,0,1-12.12-19.33q0-10.61,8.13-16.12t24.64-5.5h9.5a1.82,1.82,0,0,0,1.64-2.59q-2.69-5.79-12.71-5.79a33.86,33.86,0,0,0-9.83,1.51,29.22,29.22,0,0,0-6.85,3,1.8,1.8,0,0,1-2.58-.75l-7.8-16.15a1.82,1.82,0,0,1,.77-2.38,54.12,54.12,0,0,1,13.37-5.08,71.87,71.87,0,0,1,17.36-2.16Q613.08,71.65,623,80.11Zm-23.33,46.32a9.7,9.7,0,0,0,3.56-4.79,1.88,1.88,0,0,0,.11-.65v-2.84a1.81,1.81,0,0,0-1.81-1.81H596q-9,0-9,6a5.22,5.22,0,0,0,1.9,4.13,7.65,7.65,0,0,0,5.18,1.64A9.74,9.74,0,0,0,599.71,126.43Z"/><path class="cls-1" d="M655.8,144a55.69,55.69,0,0,1-12.92-4.31,1.82,1.82,0,0,1-.86-2.32l6.71-16.13a1.8,1.8,0,0,1,2.5-.91,44.58,44.58,0,0,0,10.08,3.74,54.42,54.42,0,0,0,13.24,1.7q5.11,0,7.14-.85a2.76,2.76,0,0,0,2-2.56q0-1.7-2.56-2.36a68.77,68.77,0,0,0-8.32-1.31A109.46,109.46,0,0,1,657.89,116a23.42,23.42,0,0,1-10.81-6.36q-4.65-4.72-4.65-13.5a20,20,0,0,1,4.19-12.45q4.19-5.5,12.51-8.78t20-3.28A83.86,83.86,0,0,1,695,73.16a51.14,51.14,0,0,1,11.72,3.61,1.82,1.82,0,0,1,.92,2.35L701,95.25a1.8,1.8,0,0,1-2.45.94,42.09,42.09,0,0,0-19-4.35q-9.7,0-9.7,3.41,0,1.71,2.62,2.42A60.23,60.23,0,0,0,680.69,99a101,101,0,0,1,14.87,2.75,24,24,0,0,1,10.75,6.42q4.65,4.72,4.65,13.5a19.65,19.65,0,0,1-4.19,12.19q-4.2,5.5-12.58,8.78T673.88,146A83.68,83.68,0,0,1,655.8,144Z"/><path class="cls-1" d="M840,75.37l-23.64,68.06a1.81,1.81,0,0,1-1.71,1.22H788.41a1.81,1.81,0,0,1-1.72-1.25l-8.78-26.76a1.81,1.81,0,0,0-3.43,0l-9.11,26.8a1.81,1.81,0,0,1-1.71,1.23H737.41a1.81,1.81,0,0,1-1.71-1.22L712.06,75.37a1.81,1.81,0,0,1,1.71-2.4H738a1.81,1.81,0,0,1,1.72,1.25l10.23,31.44a1.81,1.81,0,0,0,3.44,0L764,74.19A1.81,1.81,0,0,1,765.73,73h22.55A1.81,1.81,0,0,1,790,74.21L800.34,106a1.81,1.81,0,0,0,3.44,0L814.47,74.2A1.81,1.81,0,0,1,816.18,73h22.1A1.81,1.81,0,0,1,840,75.37Z"/><path class="cls-1" d="M918.8,115.68H873.72a1.82,1.82,0,0,0-1.48,2.87,12,12,0,0,0,3.7,3.35,17.82,17.82,0,0,0,9.17,2.16,23.17,23.17,0,0,0,7.93-1.18,25.65,25.65,0,0,0,5.8-3.17,1.8,1.8,0,0,1,2.31.21l13.12,13.23a1.82,1.82,0,0,1,0,2.59q-10.44,10.2-30,10.2-13,0-22.8-4.78a36.19,36.19,0,0,1-15.2-13.3,37.06,37.06,0,0,1-.07-38.33,36.28,36.28,0,0,1,14.54-13.17A47.91,47.91,0,0,1,901.3,76a34.1,34.1,0,0,1,14.28,12.71q5.31,8.39,5.31,20,0,.56-.29,5.24A1.82,1.82,0,0,1,918.8,115.68ZM874.11,94.32A10.88,10.88,0,0,0,870.87,99a1.82,1.82,0,0,0,1.7,2.45h18.25a1.81,1.81,0,0,0,1.7-2.46,10.94,10.94,0,0,0-10.81-7.11A11.54,11.54,0,0,0,874.11,94.32Z"/><path class="cls-1" d="M995.39,76.18a32.72,32.72,0,0,1,12.58,13,40,40,0,0,1,4.65,19.59A40.36,40.36,0,0,1,1008,128.4a32.6,32.6,0,0,1-12.58,13A34.44,34.44,0,0,1,978,146q-10.58,0-16.8-4.6a1.8,1.8,0,0,0-2.86,1.47h0a1.81,1.81,0,0,1-1.81,1.81H932a1.81,1.81,0,0,1-1.81-1.81V49.22A1.81,1.81,0,0,1,932,47.41h26a1.81,1.81,0,0,1,1.81,1.81V74a1.8,1.8,0,0,0,2.78,1.52q5.93-3.92,15.43-3.92A34.45,34.45,0,0,1,995.39,76.18Zm-16.05,43q3.27-3.73,3.28-10.42t-3.28-10.35a11.42,11.42,0,0,0-16.77,0q-3.28,3.67-3.28,10.35t3.28,10.42a11.28,11.28,0,0,0,16.77,0Z"/><path class="cls-2" d="M106,0h0A106,106,0,0,0,0,106H0A106,106,0,0,0,106,212h0A106,106,0,0,0,212,106h0A106,106,0,0,0,106,0Zm68.63,121.63a53,53,0,0,1-53,53h0a53,53,0,0,1-53-53h0a53,53,0,0,1,53-53h0a53,53,0,0,1,53,53Z"/></g></g></svg>