<svg xmlns="http://www.w3.org/2000/svg" viewBox="0 0 764.24 765"><defs><style>.cls-1{fill:#202229;}.cls-2{fill:#4810ff;}</style></defs><title>portrait-flat</title><g id="Layer_2" data-name="Layer 2"><g id="Layer_1-2" data-name="Layer 1"><path class="cls-1" d="M64.47,675q10,8.45,10,26v36.72a1.81,1.81,0,0,1-1.81,1.81H48.72a1.81,1.81,0,0,1-1.81-1.81V736a1.81,1.81,0,0,0-3.16-1.2Q38,740.89,26.6,740.89a32.42,32.42,0,0,1-14.48-2.95A20.77,20.77,0,0,1,0,718.61Q0,708,8.12,702.49T32.76,697h9.49a1.82,1.82,0,0,0,1.64-2.59q-2.69-5.79-12.71-5.79a33.86,33.86,0,0,0-9.83,1.51,29.22,29.22,0,0,0-6.85,3,1.8,1.8,0,0,1-2.58-.75l-7.8-16.15a1.82,1.82,0,0,1,.77-2.38,54.12,54.12,0,0,1,13.37-5.08,71.88,71.88,0,0,1,17.36-2.16Q54.51,666.59,64.47,675ZM41.15,721.36a9.7,9.7,0,0,0,3.56-4.79,1.88,1.88,0,0,0,.11-.65v-2.84A1.81,1.81,0,0,0,43,711.27H37.48q-9,0-9,6a5.22,5.22,0,0,0,1.9,4.13,7.65,7.65,0,0,0,5.18,1.64A9.75,9.75,0,0,0,41.15,721.36Z"/><path class="cls-1" d="M89.08,642.34h26a1.81,1.81,0,0,1,1.81,1.81v93.61a1.81,1.81,0,0,1-1.81,1.81h-26a1.81,1.81,0,0,1-1.81-1.81V644.15A1.81,1.81,0,0,1,89.08,642.34Z"/><path class="cls-1" d="M195.19,671.11a32.62,32.62,0,0,1,12.58,13,43.71,43.71,0,0,1,0,39.25,32.72,32.72,0,0,1-12.58,13,34.44,34.44,0,0,1-17.36,4.52q-9.51,0-15.43-3.91a1.8,1.8,0,0,0-2.78,1.52v24.7A1.81,1.81,0,0,1,157.8,765h-26a1.81,1.81,0,0,1-1.81-1.81V669.71a1.81,1.81,0,0,1,1.81-1.81h24.55a1.81,1.81,0,0,1,1.81,1.81h0a1.8,1.8,0,0,0,2.86,1.47q6.22-4.6,16.8-4.6A34.45,34.45,0,0,1,195.19,671.11Zm-16.05,43q3.27-3.67,3.28-10.35t-3.28-10.42a11.28,11.28,0,0,0-16.77,0q-3.28,3.73-3.28,10.42t3.28,10.35a11.42,11.42,0,0,0,16.77,0Z"/><path class="cls-1" d="M292.81,674.58q8.06,8,8.06,24.11v39.08a1.81,1.81,0,0,1-1.81,1.81h-26a1.81,1.81,0,0,1-1.81-1.81v-34q0-12.32-8.78-12.32a10.26,10.26,0,0,0-8.06,3.47q-3.08,3.47-3.08,10.94v31.87a1.81,1.81,0,0,1-1.81,1.81h-26a1.81,1.81,0,0,1-1.81-1.81V644.15a1.81,1.81,0,0,1,1.81-1.81h26a1.81,1.81,0,0,1,1.81,1.81V670a1.81,1.81,0,0,0,2.82,1.49,30.55,30.55,0,0,1,17.36-4.94Q284.75,666.59,292.81,674.58Z"/><path class="cls-1" d="M374.65,675q10,8.45,10,26v36.72a1.81,1.81,0,0,1-1.81,1.81H358.9a1.81,1.81,0,0,1-1.81-1.81V736a1.81,1.81,0,0,0-3.16-1.2q-5.73,6.07-17.15,6.07a32.42,32.42,0,0,1-14.48-2.95,20.77,20.77,0,0,1-12.12-19.33q0-10.61,8.13-16.12t24.64-5.5h9.5a1.82,1.82,0,0,0,1.64-2.59q-2.69-5.79-12.71-5.79a33.86,33.86,0,0,0-9.83,1.51,29.22,29.22,0,0,0-6.85,3,1.8,1.8,0,0,1-2.58-.75l-7.8-16.15a1.82,1.82,0,0,1,.77-2.38,54.12,54.12,0,0,1,13.37-5.08,71.87,71.87,0,0,1,17.36-2.16Q364.69,666.59,374.65,675Zm-23.33,46.32a9.7,9.7,0,0,0,3.56-4.79,1.88,1.88,0,0,0,.11-.65v-2.84a1.81,1.81,0,0,0-1.81-1.81h-5.53q-9,0-9,6a5.22,5.22,0,0,0,1.9,4.13,7.65,7.65,0,0,0,5.18,1.64A9.74,9.74,0,0,0,351.32,721.36Z"/><path class="cls-1" d="M407.41,738.92a55.69,55.69,0,0,1-12.92-4.31,1.82,1.82,0,0,1-.86-2.32l6.71-16.13a1.8,1.8,0,0,1,2.5-.91A44.58,44.58,0,0,0,412.91,719a54.42,54.42,0,0,0,13.24,1.7q5.11,0,7.14-.85a2.76,2.76,0,0,0,2-2.56q0-1.7-2.56-2.36a68.77,68.77,0,0,0-8.32-1.31,109.46,109.46,0,0,1-14.94-2.69,23.42,23.42,0,0,1-10.81-6.36q-4.65-4.72-4.65-13.5a20,20,0,0,1,4.19-12.45q4.19-5.5,12.51-8.78t20-3.28a83.86,83.86,0,0,1,15.92,1.51,51.14,51.14,0,0,1,11.72,3.61,1.82,1.82,0,0,1,.92,2.35l-6.71,16.13a1.8,1.8,0,0,1-2.45.94,42.09,42.09,0,0,0-19-4.35q-9.7,0-9.7,3.41,0,1.71,2.62,2.42a60.23,60.23,0,0,0,8.26,1.38,101,101,0,0,1,14.87,2.75,24,24,0,0,1,10.75,6.42q4.65,4.72,4.65,13.5a19.65,19.65,0,0,1-4.19,12.19q-4.2,5.5-12.58,8.78t-20.31,3.28A83.68,83.68,0,0,1,407.41,738.92Z"/><path class="cls-1" d="M591.61,670.3,568,738.36a1.81,1.81,0,0,1-1.71,1.22H540a1.81,1.81,0,0,1-1.72-1.25l-8.78-26.76a1.81,1.81,0,0,0-3.43,0L517,738.35a1.81,1.81,0,0,1-1.71,1.23H489a1.81,1.81,0,0,1-1.71-1.22L463.67,670.3a1.81,1.81,0,0,1,1.71-2.4h24.18a1.81,1.81,0,0,1,1.72,1.25l10.23,31.44a1.81,1.81,0,0,0,3.44,0l10.68-31.48a1.81,1.81,0,0,1,1.71-1.23h22.55a1.81,1.81,0,0,1,1.72,1.25L552,701a1.81,1.81,0,0,0,3.44,0l10.69-31.84a1.81,1.81,0,0,1,1.72-1.23h22.1A1.81,1.81,0,0,1,591.61,670.3Z"/><path class="cls-1" d="M670.41,710.62H625.33a1.82,1.82,0,0,0-1.48,2.87,12,12,0,0,0,3.7,3.35,17.82,17.82,0,0,0,9.17,2.16,23.17,23.17,0,0,0,7.93-1.18,25.65,25.65,0,0,0,5.8-3.17,1.8,1.8,0,0,1,2.31.21l13.12,13.23a1.82,1.82,0,0,1,0,2.59q-10.44,10.2-30,10.2-13,0-22.8-4.78a36.19,36.19,0,0,1-15.2-13.3,37.06,37.06,0,0,1-.07-38.33,36.28,36.28,0,0,1,14.54-13.17,47.91,47.91,0,0,1,40.62-.39,34.1,34.1,0,0,1,14.28,12.71q5.31,8.39,5.31,20,0,.56-.29,5.24A1.82,1.82,0,0,1,670.41,710.62Zm-44.69-21.36a10.88,10.88,0,0,0-3.24,4.63,1.82,1.82,0,0,0,1.7,2.45h18.25a1.81,1.81,0,0,0,1.7-2.46,10.94,10.94,0,0,0-10.81-7.11A11.54,11.54,0,0,0,625.73,689.26Z"/><path class="cls-1" d="M747,671.11a32.72,32.72,0,0,1,12.58,13,43.71,43.71,0,0,1,0,39.25,32.6,32.6,0,0,1-12.58,13,34.44,34.44,0,0,1-17.36,4.52q-10.58,0-16.8-4.6a1.8,1.8,0,0,0-2.86,1.47h0a1.81,1.81,0,0,1-1.81,1.81H683.62a1.81,1.81,0,0,1-1.81-1.81V644.15a1.81,1.81,0,0,1,1.81-1.81h26a1.81,1.81,0,0,1,1.81,1.81V669a1.8,1.8,0,0,0,2.78,1.52q5.93-3.92,15.43-3.92A34.45,34.45,0,0,1,747,671.11Zm-16.05,43q3.27-3.73,3.28-10.42T731,693.32a11.42,11.42,0,0,0-16.77,0q-3.28,3.67-3.28,10.35t3.28,10.42a11.28,11.28,0,0,0,16.77,0Z"/><path class="cls-2" d="M382.12,0h0C217,0,83.12,133.87,83.12,299h0c0,165.13,133.87,299,299,299h0c165.13,0,299-133.87,299-299h0C681.12,133.87,547.25,0,382.12,0ZM575.7,343.08a149.5,149.5,0,0,1-149.5,149.5h0a149.5,149.5,0,0,1-149.5-149.5h0a149.5,149.5,0,0,1,149.5-149.5h0a149.5,149.5,0,0,1,149.5,149.5Z"/></g></g></svg>